ply
format ascii 1.0
element vertex 1782
property float x
property float y
property float z
end_header
54.0 -26.0 110.0
54.0 -22.0 110.0
54.0 -26.0 106.0
54.0 -22.0 106.0
50.0 -26.0 110.0
50.0 -22.0 110.0
50.0 -18.0 110.0
50.0 -26.0 106.0
50.0 -22.0 106.0
50.0 -18.0 106.0
50.0 -26.0 102.0
50.0 -22.0 102.0
46.0 -26.0 110.0
46.0 -22.0 110.0
46.0 -18.0 110.0
46.0 -26.0 106.0
46.0 -22.0 106.0
46.0 -18.0 106.0
46.0 -14.0 106.0
46.0 -26.0 102.0
46.0 -22.0 102.0
46.0 -18.0 102.0
42.0 -18.0 114.0
42.0 -26.0 110.0
42.0 -22.0 110.0
42.0 -18.0 110.0
42.0 -14.0 110.0
42.0 -26.0 106.0
42.0 -22.0 106.0
42.0 -18.0 106.0
42.0 -14.0 106.0
42.0 -10.0 106.0
42.0 -26.0 102.0
42.0 -22.0 102.0
42.0 -18.0 102.0
42.0 -14.0 102.0
38.0 -18.0 114.0
38.0 -14.0 114.0
38.0 -26.0 110.0
38.0 -22.0 110.0
38.0 -18.0 110.0
38.0 -14.0 110.0
38.0 -10.0 110.0
38.0 -26.0 106.0
38.0 -22.0 106.0
38.0 -18.0 106.0
38.0 -14.0 106.0
38.0 -10.0 106.0
38.0 -22.0 102.0
38.0 -18.0 102.0
38.0 -14.0 102.0
34.0 -18.0 118.0
34.0 -14.0 118.0
34.0 -10.0 118.0
34.0 -18.0 114.0
34.0 -14.0 114.0
34.0 -10.0 114.0
34.0 -22.0 110.0
34.0 -18.0 110.0
34.0 -14.0 110.0
34.0 -10.0 110.0
34.0 -6.0 110.0
34.0 -26.0 106.0
34.0 -22.0 106.0
34.0 -18.0 106.0
34.0 -14.0 106.0
34.0 -10.0 106.0
34.0 -6.0 106.0
34.0 -22.0 102.0
34.0 -18.0 102.0
34.0 -14.0 102.0
30.0 -14.0 122.0
30.0 -10.0 122.0
30.0 -18.0 118.0
30.0 -14.0 118.0
30.0 -10.0 118.0
30.0 -6.0 118.0
30.0 -18.0 114.0
30.0 -14.0 114.0
30.0 -10.0 114.0
30.0 -6.0 114.0
30.0 -2.0 114.0
30.0 -22.0 110.0
30.0 -18.0 110.0
30.0 -14.0 110.0
30.0 -10.0 110.0
30.0 -6.0 110.0
30.0 -2.0 110.0
30.0 -22.0 106.0
30.0 -18.0 106.0
30.0 -14.0 106.0
30.0 -10.0 106.0
30.0 -6.0 106.0
30.0 -2.0 106.0
30.0 2.0 94.0
30.0 -2.0 90.0
30.0 2.0 90.0
30.0 -10.0 86.0
30.0 -6.0 86.0
30.0 -2.0 86.0
30.0 2.0 86.0
30.0 6.0 86.0
30.0 10.0 86.0
30.0 -10.0 82.0
30.0 -6.0 82.0
30.0 -2.0 82.0
30.0 2.0 82.0
30.0 6.0 82.0
30.0 10.0 82.0
26.0 -10.0 126.0
26.0 -14.0 122.0
26.0 -10.0 122.0
26.0 -6.0 122.0
26.0 -18.0 118.0
26.0 -14.0 118.0
26.0 -10.0 118.0
26.0 -6.0 118.0
26.0 -2.0 118.0
26.0 -18.0 114.0
26.0 -14.0 114.0
26.0 -10.0 114.0
26.0 -6.0 114.0
26.0 -2.0 114.0
26.0 2.0 114.0
26.0 -18.0 110.0
26.0 -14.0 110.0
26.0 -10.0 110.0
26.0 -6.0 110.0
26.0 -2.0 110.0
26.0 2.0 110.0
26.0 -22.0 106.0
26.0 -18.0 106.0
26.0 -14.0 106.0
26.0 -10.0 106.0
26.0 -6.0 106.0
26.0 -2.0 106.0
26.0 2.0 106.0
26.0 -2.0 102.0
26.0 2.0 102.0
26.0 6.0 102.0
26.0 -6.0 98.0
26.0 -2.0 98.0
26.0 2.0 98.0
26.0 6.0 98.0
26.0 -6.0 94.0
26.0 -2.0 94.0
26.0 2.0 94.0
26.0 6.0 94.0
26.0 -14.0 90.0
26.0 -10.0 90.0
26.0 -6.0 90.0
26.0 -2.0 90.0
26.0 2.0 90.0
26.0 6.0 90.0
26.0 10.0 90.0
26.0 14.0 90.0
26.0 -18.0 86.0
26.0 -14.0 86.0
26.0 -10.0 86.0
26.0 -6.0 86.0
26.0 -2.0 86.0
26.0 2.0 86.0
26.0 6.0 86.0
26.0 10.0 86.0
26.0 14.0 86.0
26.0 18.0 86.0
26.0 -18.0 82.0
26.0 -14.0 82.0
26.0 -10.0 82.0
26.0 -6.0 82.0
26.0 -2.0 82.0
26.0 2.0 82.0
26.0 6.0 82.0
26.0 10.0 82.0
26.0 14.0 82.0
26.0 18.0 82.0
22.0 -14.0 126.0
22.0 -10.0 126.0
22.0 -6.0 126.0
22.0 -2.0 126.0
22.0 -14.0 122.0
22.0 -10.0 122.0
22.0 -6.0 122.0
22.0 -2.0 122.0
22.0 2.0 122.0
22.0 -18.0 118.0
22.0 -14.0 118.0
22.0 -10.0 118.0
22.0 -6.0 118.0
22.0 -2.0 118.0
22.0 2.0 118.0
22.0 -18.0 114.0
22.0 -14.0 114.0
22.0 -10.0 114.0
22.0 -6.0 114.0
22.0 -2.0 114.0
22.0 2.0 114.0
22.0 -18.0 110.0
22.0 -14.0 110.0
22.0 -10.0 110.0
22.0 -6.0 110.0
22.0 -2.0 110.0
22.0 2.0 110.0
22.0 -22.0 106.0
22.0 -18.0 106.0
22.0 -14.0 106.0
22.0 -10.0 106.0
22.0 -6.0 106.0
22.0 -2.0 106.0
22.0 2.0 106.0
22.0 6.0 106.0
22.0 -10.0 102.0
22.0 -6.0 102.0
22.0 -2.0 102.0
22.0 2.0 102.0
22.0 6.0 102.0
22.0 -10.0 98.0
22.0 -6.0 98.0
22.0 -2.0 98.0
22.0 2.0 98.0
22.0 6.0 98.0
22.0 -2.0 94.0
22.0 2.0 94.0
22.0 6.0 94.0
22.0 10.0 94.0
22.0 -18.0 90.0
22.0 -14.0 90.0
22.0 -10.0 90.0
22.0 -6.0 90.0
22.0 -2.0 90.0
22.0 2.0 90.0
22.0 6.0 90.0
22.0 10.0 90.0
22.0 14.0 90.0
22.0 18.0 90.0
22.0 -22.0 86.0
22.0 -18.0 86.0
22.0 -14.0 86.0
22.0 -10.0 86.0
22.0 -6.0 86.0
22.0 -2.0 86.0
22.0 2.0 86.0
22.0 6.0 86.0
22.0 10.0 86.0
22.0 14.0 86.0
22.0 18.0 86.0
22.0 22.0 86.0
22.0 -22.0 82.0
22.0 -18.0 82.0
22.0 -14.0 82.0
22.0 -10.0 82.0
22.0 -6.0 82.0
22.0 -2.0 82.0
22.0 2.0 82.0
22.0 6.0 82.0
22.0 10.0 82.0
22.0 14.0 82.0
22.0 18.0 82.0
22.0 22.0 82.0
18.0 -10.0 130.0
18.0 -6.0 130.0
18.0 -14.0 126.0
18.0 -10.0 126.0
18.0 -6.0 126.0
18.0 -2.0 126.0
18.0 2.0 126.0
18.0 -18.0 122.0
18.0 -14.0 122.0
18.0 -10.0 122.0
18.0 -6.0 122.0
18.0 -2.0 122.0
18.0 2.0 122.0
18.0 6.0 122.0
18.0 -18.0 118.0
18.0 -14.0 118.0
18.0 -10.0 118.0
18.0 -6.0 118.0
18.0 -2.0 118.0
18.0 2.0 118.0
18.0 6.0 118.0
18.0 -18.0 114.0
18.0 -14.0 114.0
18.0 -10.0 114.0
18.0 -6.0 114.0
18.0 -2.0 114.0
18.0 2.0 114.0
18.0 6.0 114.0
18.0 -18.0 110.0
18.0 -14.0 110.0
18.0 -10.0 110.0
18.0 -6.0 110.0
18.0 -2.0 110.0
18.0 2.0 110.0
18.0 6.0 110.0
18.0 -22.0 106.0
18.0 -18.0 106.0
18.0 -14.0 106.0
18.0 -10.0 106.0
18.0 -6.0 106.0
18.0 -2.0 106.0
18.0 2.0 106.0
18.0 6.0 106.0
18.0 -18.0 102.0
18.0 -14.0 102.0
18.0 -10.0 102.0
18.0 -6.0 102.0
18.0 -2.0 102.0
18.0 2.0 102.0
18.0 6.0 102.0
18.0 -18.0 98.0
18.0 -14.0 98.0
18.0 -2.0 98.0
18.0 2.0 98.0
18.0 6.0 98.0
18.0 10.0 98.0
18.0 -18.0 94.0
18.0 -14.0 94.0
18.0 -2.0 94.0
18.0 2.0 94.0
18.0 6.0 94.0
18.0 10.0 94.0
18.0 -22.0 90.0
18.0 -18.0 90.0
18.0 -14.0 90.0
18.0 -10.0 90.0
18.0 -6.0 90.0
18.0 -2.0 90.0
18.0 2.0 90.0
18.0 6.0 90.0
18.0 10.0 90.0
18.0 14.0 90.0
18.0 18.0 90.0
18.0 22.0 90.0
18.0 -26.0 86.0
18.0 -22.0 86.0
18.0 -18.0 86.0
18.0 -14.0 86.0
18.0 -10.0 86.0
18.0 -6.0 86.0
18.0 -2.0 86.0
18.0 2.0 86.0
18.0 6.0 86.0
18.0 10.0 86.0
18.0 14.0 86.0
18.0 18.0 86.0
18.0 22.0 86.0
18.0 26.0 86.0
18.0 -26.0 82.0
18.0 -22.0 82.0
18.0 -18.0 82.0
18.0 -14.0 82.0
18.0 -10.0 82.0
18.0 -6.0 82.0
18.0 -2.0 82.0
18.0 2.0 82.0
18.0 6.0 82.0
18.0 10.0 82.0
18.0 14.0 82.0
18.0 18.0 82.0
18.0 22.0 82.0
18.0 26.0 82.0
14.0 -10.0 130.0
14.0 -6.0 130.0
14.0 -2.0 130.0
14.0 -14.0 126.0
14.0 -10.0 126.0
14.0 -6.0 126.0
14.0 -2.0 126.0
14.0 2.0 126.0
14.0 -18.0 122.0
14.0 -14.0 122.0
14.0 -10.0 122.0
14.0 -6.0 122.0
14.0 -2.0 122.0
14.0 2.0 122.0
14.0 6.0 122.0
14.0 -18.0 118.0
14.0 -14.0 118.0
14.0 -10.0 118.0
14.0 -6.0 118.0
14.0 -2.0 118.0
14.0 2.0 118.0
14.0 6.0 118.0
14.0 10.0 118.0
14.0 -18.0 114.0
14.0 -14.0 114.0
14.0 -10.0 114.0
14.0 -6.0 114.0
14.0 -2.0 114.0
14.0 2.0 114.0
14.0 6.0 114.0
14.0 10.0 114.0
14.0 -18.0 110.0
14.0 -14.0 110.0
14.0 -10.0 110.0
14.0 -6.0 110.0
14.0 -2.0 110.0
14.0 2.0 110.0
14.0 6.0 110.0
14.0 10.0 110.0
14.0 -18.0 106.0
14.0 -14.0 106.0
14.0 -10.0 106.0
14.0 -6.0 106.0
14.0 -2.0 106.0
14.0 2.0 106.0
14.0 6.0 106.0
14.0 10.0 106.0
14.0 -18.0 102.0
14.0 -14.0 102.0
14.0 -10.0 102.0
14.0 -6.0 102.0
14.0 -2.0 102.0
14.0 2.0 102.0
14.0 6.0 102.0
14.0 10.0 102.0
14.0 -22.0 98.0
14.0 -18.0 98.0
14.0 -14.0 98.0
14.0 -10.0 98.0
14.0 -6.0 98.0
14.0 2.0 98.0
14.0 6.0 98.0
14.0 10.0 98.0
14.0 -22.0 94.0
14.0 -18.0 94.0
14.0 -14.0 94.0
14.0 -6.0 94.0
14.0 -2.0 94.0
14.0 2.0 94.0
14.0 6.0 94.0
14.0 10.0 94.0
14.0 14.0 94.0
14.0 -22.0 90.0
14.0 -18.0 90.0
14.0 -14.0 90.0
14.0 -10.0 90.0
14.0 -6.0 90.0
14.0 -2.0 90.0
14.0 2.0 90.0
14.0 6.0 90.0
14.0 10.0 90.0
14.0 14.0 90.0
14.0 18.0 90.0
14.0 22.0 90.0
14.0 26.0 90.0
14.0 -26.0 86.0
14.0 -22.0 86.0
14.0 -18.0 86.0
14.0 -14.0 86.0
14.0 -10.0 86.0
14.0 -6.0 86.0
14.0 -2.0 86.0
14.0 2.0 86.0
14.0 6.0 86.0
14.0 10.0 86.0
14.0 14.0 86.0
14.0 18.0 86.0
14.0 22.0 86.0
14.0 26.0 86.0
14.0 -26.0 82.0
14.0 -22.0 82.0
14.0 -18.0 82.0
14.0 -14.0 82.0
14.0 -10.0 82.0
14.0 -6.0 82.0
14.0 -2.0 82.0
14.0 2.0 82.0
14.0 6.0 82.0
14.0 10.0 82.0
14.0 14.0 82.0
14.0 18.0 82.0
14.0 22.0 82.0
14.0 26.0 82.0
10.0 -10.0 130.0
10.0 -6.0 130.0
10.0 -2.0 130.0
10.0 -14.0 126.0
10.0 -10.0 126.0
10.0 -6.0 126.0
10.0 -2.0 126.0
10.0 2.0 126.0
10.0 6.0 126.0
10.0 -14.0 122.0
10.0 -10.0 122.0
10.0 -6.0 122.0
10.0 -2.0 122.0
10.0 2.0 122.0
10.0 6.0 122.0
10.0 10.0 122.0
10.0 -18.0 118.0
10.0 -14.0 118.0
10.0 -10.0 118.0
10.0 -6.0 118.0
10.0 -2.0 118.0
10.0 2.0 118.0
10.0 6.0 118.0
10.0 10.0 118.0
10.0 -18.0 114.0
10.0 -14.0 114.0
10.0 -10.0 114.0
10.0 -6.0 114.0
10.0 -2.0 114.0
10.0 2.0 114.0
10.0 6.0 114.0
10.0 10.0 114.0
10.0 -18.0 110.0
10.0 -14.0 110.0
10.0 -10.0 110.0
10.0 -6.0 110.0
10.0 -2.0 110.0
10.0 2.0 110.0
10.0 6.0 110.0
10.0 10.0 110.0
10.0 -18.0 106.0
10.0 -14.0 106.0
10.0 -10.0 106.0
10.0 -6.0 106.0
10.0 -2.0 106.0
10.0 2.0 106.0
10.0 6.0 106.0
10.0 10.0 106.0
10.0 -18.0 102.0
10.0 -14.0 102.0
10.0 -10.0 102.0
10.0 -6.0 102.0
10.0 -2.0 102.0
10.0 2.0 102.0
10.0 6.0 102.0
10.0 10.0 102.0
10.0 -18.0 98.0
10.0 -14.0 98.0
10.0 -10.0 98.0
10.0 -6.0 98.0
10.0 -2.0 98.0
10.0 2.0 98.0
10.0 -22.0 94.0
10.0 -18.0 94.0
10.0 -14.0 94.0
10.0 -10.0 94.0
10.0 -6.0 94.0
10.0 -2.0 94.0
10.0 2.0 94.0
10.0 6.0 94.0
10.0 10.0 94.0
10.0 14.0 94.0
10.0 18.0 94.0
10.0 -26.0 90.0
10.0 -22.0 90.0
10.0 -18.0 90.0
10.0 -14.0 90.0
10.0 -10.0 90.0
10.0 -6.0 90.0
10.0 -2.0 90.0
10.0 2.0 90.0
10.0 6.0 90.0
10.0 10.0 90.0
10.0 14.0 90.0
10.0 18.0 90.0
10.0 22.0 90.0
10.0 26.0 90.0
10.0 -30.0 86.0
10.0 -26.0 86.0
10.0 -22.0 86.0
10.0 -18.0 86.0
10.0 -14.0 86.0
10.0 -10.0 86.0
10.0 -6.0 86.0
10.0 -2.0 86.0
10.0 2.0 86.0
10.0 6.0 86.0
10.0 10.0 86.0
10.0 14.0 86.0
10.0 18.0 86.0
10.0 22.0 86.0
10.0 26.0 86.0
10.0 30.0 86.0
10.0 -30.0 82.0
10.0 -26.0 82.0
10.0 -22.0 82.0
10.0 -18.0 82.0
10.0 -14.0 82.0
10.0 -10.0 82.0
10.0 -6.0 82.0
10.0 -2.0 82.0
10.0 2.0 82.0
10.0 6.0 82.0
10.0 10.0 82.0
10.0 14.0 82.0
10.0 18.0 82.0
10.0 22.0 82.0
10.0 26.0 82.0
10.0 30.0 82.0
6.0 -2.0 198.0
6.0 2.0 198.0
6.0 -2.0 194.0
6.0 2.0 194.0
6.0 -2.0 190.0
6.0 2.0 190.0
6.0 -2.0 186.0
6.0 2.0 186.0
6.0 6.0 186.0
6.0 -6.0 130.0
6.0 -2.0 130.0
6.0 2.0 130.0
6.0 -14.0 126.0
6.0 -10.0 126.0
6.0 -6.0 126.0
6.0 -2.0 126.0
6.0 2.0 126.0
6.0 6.0 126.0
6.0 10.0 126.0
6.0 -14.0 122.0
6.0 -10.0 122.0
6.0 -6.0 122.0
6.0 -2.0 122.0
6.0 2.0 122.0
6.0 6.0 122.0
6.0 10.0 122.0
6.0 -18.0 118.0
6.0 -14.0 118.0
6.0 -10.0 118.0
6.0 -6.0 118.0
6.0 -2.0 118.0
6.0 2.0 118.0
6.0 6.0 118.0
6.0 10.0 118.0
6.0 14.0 118.0
6.0 -18.0 114.0
6.0 -14.0 114.0
6.0 -10.0 114.0
6.0 -6.0 114.0
6.0 -2.0 114.0
6.0 2.0 114.0
6.0 6.0 114.0
6.0 10.0 114.0
6.0 14.0 114.0
6.0 -18.0 110.0
6.0 -14.0 110.0
6.0 -10.0 110.0
6.0 -6.0 110.0
6.0 -2.0 110.0
6.0 2.0 110.0
6.0 6.0 110.0
6.0 10.0 110.0
6.0 14.0 110.0
6.0 -18.0 106.0
6.0 -14.0 106.0
6.0 -10.0 106.0
6.0 -6.0 106.0
6.0 -2.0 106.0
6.0 2.0 106.0
6.0 6.0 106.0
6.0 10.0 106.0
6.0 14.0 106.0
6.0 -18.0 102.0
6.0 -14.0 102.0
6.0 -10.0 102.0
6.0 -6.0 102.0
6.0 -2.0 102.0
6.0 2.0 102.0
6.0 6.0 102.0
6.0 10.0 102.0
6.0 14.0 102.0
6.0 -18.0 98.0
6.0 -14.0 98.0
6.0 -10.0 98.0
6.0 -6.0 98.0
6.0 -2.0 98.0
6.0 2.0 98.0
6.0 6.0 98.0
6.0 -22.0 94.0
6.0 -18.0 94.0
6.0 -14.0 94.0
6.0 -10.0 94.0
6.0 -6.0 94.0
6.0 -2.0 94.0
6.0 2.0 94.0
6.0 6.0 94.0
6.0 10.0 94.0
6.0 14.0 94.0
6.0 18.0 94.0
6.0 -26.0 90.0
6.0 -22.0 90.0
6.0 -18.0 90.0
6.0 -14.0 90.0
6.0 -10.0 90.0
6.0 -6.0 90.0
6.0 -2.0 90.0
6.0 2.0 90.0
6.0 6.0 90.0
6.0 10.0 90.0
6.0 14.0 90.0
6.0 18.0 90.0
6.0 22.0 90.0
6.0 26.0 90.0
6.0 -30.0 86.0
6.0 -26.0 86.0
6.0 -22.0 86.0
6.0 -18.0 86.0
6.0 -14.0 86.0
6.0 -10.0 86.0
6.0 -6.0 86.0
6.0 -2.0 86.0
6.0 2.0 86.0
6.0 6.0 86.0
6.0 10.0 86.0
6.0 14.0 86.0
6.0 18.0 86.0
6.0 22.0 86.0
6.0 26.0 86.0
6.0 30.0 86.0
6.0 -30.0 82.0
6.0 -26.0 82.0
6.0 -22.0 82.0
6.0 -18.0 82.0
6.0 -14.0 82.0
6.0 -10.0 82.0
6.0 -6.0 82.0
6.0 -2.0 82.0
6.0 2.0 82.0
6.0 6.0 82.0
6.0 10.0 82.0
6.0 14.0 82.0
6.0 18.0 82.0
6.0 22.0 82.0
6.0 26.0 82.0
6.0 30.0 82.0
2.0 -6.0 198.0
2.0 -2.0 198.0
2.0 2.0 198.0
2.0 6.0 198.0
2.0 -6.0 194.0
2.0 -2.0 194.0
2.0 2.0 194.0
2.0 6.0 194.0
2.0 -6.0 190.0
2.0 -2.0 190.0
2.0 2.0 190.0
2.0 6.0 190.0
2.0 -6.0 186.0
2.0 -2.0 186.0
2.0 2.0 186.0
2.0 6.0 186.0
2.0 -2.0 182.0
2.0 2.0 182.0
2.0 6.0 182.0
2.0 -6.0 130.0
2.0 -2.0 130.0
2.0 2.0 130.0
2.0 6.0 130.0
2.0 -14.0 126.0
2.0 -10.0 126.0
2.0 -6.0 126.0
2.0 -2.0 126.0
2.0 2.0 126.0
2.0 6.0 126.0
2.0 10.0 126.0
2.0 -14.0 122.0
2.0 -10.0 122.0
2.0 -6.0 122.0
2.0 -2.0 122.0
2.0 2.0 122.0
2.0 6.0 122.0
2.0 10.0 122.0
2.0 14.0 122.0
2.0 -14.0 118.0
2.0 -10.0 118.0
2.0 -6.0 118.0
2.0 -2.0 118.0
2.0 2.0 118.0
2.0 6.0 118.0
2.0 10.0 118.0
2.0 14.0 118.0
2.0 -14.0 114.0
2.0 -10.0 114.0
2.0 -6.0 114.0
2.0 -2.0 114.0
2.0 2.0 114.0
2.0 6.0 114.0
2.0 10.0 114.0
2.0 14.0 114.0
2.0 -14.0 110.0
2.0 -10.0 110.0
2.0 -6.0 110.0
2.0 -2.0 110.0
2.0 2.0 110.0
2.0 6.0 110.0
2.0 10.0 110.0
2.0 14.0 110.0
2.0 -14.0 106.0
2.0 -10.0 106.0
2.0 -6.0 106.0
2.0 -2.0 106.0
2.0 2.0 106.0
2.0 6.0 106.0
2.0 10.0 106.0
2.0 14.0 106.0
2.0 -14.0 102.0
2.0 -10.0 102.0
2.0 -6.0 102.0
2.0 -2.0 102.0
2.0 2.0 102.0
2.0 6.0 102.0
2.0 10.0 102.0
2.0 14.0 102.0
2.0 -18.0 98.0
2.0 -14.0 98.0
2.0 -10.0 98.0
2.0 -6.0 98.0
2.0 -2.0 98.0
2.0 2.0 98.0
2.0 6.0 98.0
2.0 10.0 98.0
2.0 14.0 98.0
2.0 -14.0 94.0
2.0 -10.0 94.0
2.0 -6.0 94.0
2.0 -2.0 94.0
2.0 2.0 94.0
2.0 6.0 94.0
2.0 10.0 94.0
2.0 14.0 94.0
2.0 -26.0 90.0
2.0 -22.0 90.0
2.0 -18.0 90.0
2.0 -14.0 90.0
2.0 -10.0 90.0
2.0 -6.0 90.0
2.0 -2.0 90.0
2.0 2.0 90.0
2.0 6.0 90.0
2.0 10.0 90.0
2.0 14.0 90.0
2.0 18.0 90.0
2.0 22.0 90.0
2.0 26.0 90.0
2.0 -30.0 86.0
2.0 -26.0 86.0
2.0 -22.0 86.0
2.0 -18.0 86.0
2.0 -14.0 86.0
2.0 -10.0 86.0
2.0 -6.0 86.0
2.0 -2.0 86.0
2.0 2.0 86.0
2.0 6.0 86.0
2.0 10.0 86.0
2.0 14.0 86.0
2.0 18.0 86.0
2.0 22.0 86.0
2.0 26.0 86.0
2.0 30.0 86.0
2.0 -30.0 82.0
2.0 -26.0 82.0
2.0 -22.0 82.0
2.0 -18.0 82.0
2.0 -14.0 82.0
2.0 -10.0 82.0
2.0 -6.0 82.0
2.0 -2.0 82.0
2.0 2.0 82.0
2.0 6.0 82.0
2.0 10.0 82.0
2.0 14.0 82.0
2.0 18.0 82.0
2.0 22.0 82.0
2.0 26.0 82.0
2.0 30.0 82.0
-2.0 -6.0 198.0
-2.0 -2.0 198.0
-2.0 2.0 198.0
-2.0 6.0 198.0
-2.0 -6.0 194.0
-2.0 -2.0 194.0
-2.0 2.0 194.0
-2.0 6.0 194.0
-2.0 -6.0 190.0
-2.0 -2.0 190.0
-2.0 2.0 190.0
-2.0 6.0 190.0
-2.0 -6.0 186.0
-2.0 -2.0 186.0
-2.0 2.0 186.0
-2.0 6.0 186.0
-2.0 -6.0 182.0
-2.0 -2.0 182.0
-2.0 2.0 182.0
-2.0 6.0 182.0
-2.0 -6.0 130.0
-2.0 -2.0 130.0
-2.0 2.0 130.0
-2.0 6.0 130.0
-2.0 -10.0 126.0
-2.0 -6.0 126.0
-2.0 -2.0 126.0
-2.0 2.0 126.0
-2.0 6.0 126.0
-2.0 10.0 126.0
-2.0 14.0 126.0
-2.0 -14.0 122.0
-2.0 -10.0 122.0
-2.0 -6.0 122.0
-2.0 -2.0 122.0
-2.0 2.0 122.0
-2.0 6.0 122.0
-2.0 10.0 122.0
-2.0 14.0 122.0
-2.0 18.0 122.0
-2.0 -14.0 118.0
-2.0 -10.0 118.0
-2.0 -6.0 118.0
-2.0 -2.0 118.0
-2.0 2.0 118.0
-2.0 6.0 118.0
-2.0 10.0 118.0
-2.0 14.0 118.0
-2.0 18.0 118.0
-2.0 -14.0 114.0
-2.0 -10.0 114.0
-2.0 -6.0 114.0
-2.0 -2.0 114.0
-2.0 2.0 114.0
-2.0 6.0 114.0
-2.0 10.0 114.0
-2.0 14.0 114.0
-2.0 18.0 114.0
-2.0 -14.0 110.0
-2.0 -10.0 110.0
-2.0 -6.0 110.0
-2.0 -2.0 110.0
-2.0 2.0 110.0
-2.0 6.0 110.0
-2.0 10.0 110.0
-2.0 14.0 110.0
-2.0 18.0 110.0
-2.0 -14.0 106.0
-2.0 -10.0 106.0
-2.0 -6.0 106.0
-2.0 -2.0 106.0
-2.0 2.0 106.0
-2.0 6.0 106.0
-2.0 10.0 106.0
-2.0 14.0 106.0
-2.0 18.0 106.0
-2.0 -14.0 102.0
-2.0 -10.0 102.0
-2.0 -6.0 102.0
-2.0 -2.0 102.0
-2.0 2.0 102.0
-2.0 6.0 102.0
-2.0 10.0 102.0
-2.0 14.0 102.0
-2.0 18.0 102.0
-2.0 -14.0 98.0
-2.0 -6.0 98.0
-2.0 -2.0 98.0
-2.0 2.0 98.0
-2.0 6.0 98.0
-2.0 10.0 98.0
-2.0 14.0 98.0
-2.0 18.0 98.0
-2.0 -18.0 94.0
-2.0 -14.0 94.0
-2.0 -10.0 94.0
-2.0 -6.0 94.0
-2.0 -2.0 94.0
-2.0 2.0 94.0
-2.0 6.0 94.0
-2.0 10.0 94.0
-2.0 14.0 94.0
-2.0 18.0 94.0
-2.0 -26.0 90.0
-2.0 -22.0 90.0
-2.0 -18.0 90.0
-2.0 -14.0 90.0
-2.0 -10.0 90.0
-2.0 -6.0 90.0
-2.0 -2.0 90.0
-2.0 2.0 90.0
-2.0 6.0 90.0
-2.0 10.0 90.0
-2.0 14.0 90.0
-2.0 18.0 90.0
-2.0 22.0 90.0
-2.0 26.0 90.0
-2.0 -30.0 86.0
-2.0 -26.0 86.0
-2.0 -22.0 86.0
-2.0 -18.0 86.0
-2.0 -14.0 86.0
-2.0 -10.0 86.0
-2.0 -6.0 86.0
-2.0 -2.0 86.0
-2.0 2.0 86.0
-2.0 6.0 86.0
-2.0 10.0 86.0
-2.0 14.0 86.0
-2.0 18.0 86.0
-2.0 22.0 86.0
-2.0 26.0 86.0
-2.0 30.0 86.0
-2.0 -30.0 82.0
-2.0 -26.0 82.0
-2.0 -22.0 82.0
-2.0 -18.0 82.0
-2.0 -14.0 82.0
-2.0 -10.0 82.0
-2.0 -6.0 82.0
-2.0 -2.0 82.0
-2.0 2.0 82.0
-2.0 6.0 82.0
-2.0 10.0 82.0
-2.0 14.0 82.0
-2.0 18.0 82.0
-2.0 22.0 82.0
-2.0 26.0 82.0
-2.0 30.0 82.0
-6.0 -2.0 198.0
-6.0 2.0 198.0
-6.0 -2.0 194.0
-6.0 2.0 194.0
-6.0 -2.0 190.0
-6.0 2.0 190.0
-6.0 -2.0 186.0
-6.0 2.0 186.0
-6.0 -2.0 182.0
-6.0 2.0 182.0
-6.0 -2.0 130.0
-6.0 2.0 130.0
-6.0 -10.0 126.0
-6.0 -6.0 126.0
-6.0 -2.0 126.0
-6.0 2.0 126.0
-6.0 6.0 126.0
-6.0 10.0 126.0
-6.0 14.0 126.0
-6.0 18.0 126.0
-6.0 -10.0 122.0
-6.0 -6.0 122.0
-6.0 -2.0 122.0
-6.0 2.0 122.0
-6.0 6.0 122.0
-6.0 10.0 122.0
-6.0 14.0 122.0
-6.0 18.0 122.0
-6.0 -10.0 118.0
-6.0 -6.0 118.0
-6.0 -2.0 118.0
-6.0 2.0 118.0
-6.0 6.0 118.0
-6.0 10.0 118.0
-6.0 14.0 118.0
-6.0 18.0 118.0
-6.0 -14.0 114.0
-6.0 -10.0 114.0
-6.0 -6.0 114.0
-6.0 -2.0 114.0
-6.0 2.0 114.0
-6.0 6.0 114.0
-6.0 10.0 114.0
-6.0 14.0 114.0
-6.0 18.0 114.0
-6.0 -14.0 110.0
-6.0 -10.0 110.0
-6.0 -6.0 110.0
-6.0 -2.0 110.0
-6.0 2.0 110.0
-6.0 6.0 110.0
-6.0 10.0 110.0
-6.0 14.0 110.0
-6.0 18.0 110.0
-6.0 -14.0 106.0
-6.0 -10.0 106.0
-6.0 -6.0 106.0
-6.0 -2.0 106.0
-6.0 2.0 106.0
-6.0 6.0 106.0
-6.0 10.0 106.0
-6.0 14.0 106.0
-6.0 18.0 106.0
-6.0 -14.0 102.0
-6.0 -10.0 102.0
-6.0 -6.0 102.0
-6.0 -2.0 102.0
-6.0 2.0 102.0
-6.0 6.0 102.0
-6.0 10.0 102.0
-6.0 14.0 102.0
-6.0 18.0 102.0
-6.0 -14.0 98.0
-6.0 -10.0 98.0
-6.0 -6.0 98.0
-6.0 -2.0 98.0
-6.0 2.0 98.0
-6.0 6.0 98.0
-6.0 10.0 98.0
-6.0 14.0 98.0
-6.0 18.0 98.0
-6.0 -18.0 94.0
-6.0 -14.0 94.0
-6.0 -10.0 94.0
-6.0 -6.0 94.0
-6.0 -2.0 94.0
-6.0 2.0 94.0
-6.0 6.0 94.0
-6.0 10.0 94.0
-6.0 14.0 94.0
-6.0 18.0 94.0
-6.0 -26.0 90.0
-6.0 -22.0 90.0
-6.0 -18.0 90.0
-6.0 -14.0 90.0
-6.0 -10.0 90.0
-6.0 -6.0 90.0
-6.0 -2.0 90.0
-6.0 2.0 90.0
-6.0 6.0 90.0
-6.0 10.0 90.0
-6.0 14.0 90.0
-6.0 18.0 90.0
-6.0 22.0 90.0
-6.0 26.0 90.0
-6.0 -30.0 86.0
-6.0 -26.0 86.0
-6.0 -22.0 86.0
-6.0 -18.0 86.0
-6.0 -14.0 86.0
-6.0 -10.0 86.0
-6.0 -6.0 86.0
-6.0 -2.0 86.0
-6.0 2.0 86.0
-6.0 6.0 86.0
-6.0 10.0 86.0
-6.0 14.0 86.0
-6.0 18.0 86.0
-6.0 22.0 86.0
-6.0 26.0 86.0
-6.0 30.0 86.0
-6.0 -30.0 82.0
-6.0 -26.0 82.0
-6.0 -22.0 82.0
-6.0 -18.0 82.0
-6.0 -14.0 82.0
-6.0 -10.0 82.0
-6.0 -6.0 82.0
-6.0 -2.0 82.0
-6.0 2.0 82.0
-6.0 6.0 82.0
-6.0 10.0 82.0
-6.0 14.0 82.0
-6.0 18.0 82.0
-6.0 22.0 82.0
-6.0 26.0 82.0
-6.0 30.0 82.0
-10.0 -6.0 126.0
-10.0 -2.0 126.0
-10.0 2.0 126.0
-10.0 6.0 126.0
-10.0 10.0 126.0
-10.0 14.0 126.0
-10.0 18.0 126.0
-10.0 -10.0 122.0
-10.0 -6.0 122.0
-10.0 -2.0 122.0
-10.0 2.0 122.0
-10.0 6.0 122.0
-10.0 10.0 122.0
-10.0 14.0 122.0
-10.0 18.0 122.0
-10.0 22.0 122.0
-10.0 -10.0 118.0
-10.0 -6.0 118.0
-10.0 -2.0 118.0
-10.0 2.0 118.0
-10.0 6.0 118.0
-10.0 10.0 118.0
-10.0 14.0 118.0
-10.0 18.0 118.0
-10.0 22.0 118.0
-10.0 -10.0 114.0
-10.0 -6.0 114.0
-10.0 -2.0 114.0
-10.0 2.0 114.0
-10.0 6.0 114.0
-10.0 10.0 114.0
-10.0 14.0 114.0
-10.0 18.0 114.0
-10.0 22.0 114.0
-10.0 -10.0 110.0
-10.0 -6.0 110.0
-10.0 -2.0 110.0
-10.0 2.0 110.0
-10.0 6.0 110.0
-10.0 10.0 110.0
-10.0 14.0 110.0
-10.0 18.0 110.0
-10.0 22.0 110.0
-10.0 -10.0 106.0
-10.0 -6.0 106.0
-10.0 -2.0 106.0
-10.0 2.0 106.0
-10.0 6.0 106.0
-10.0 10.0 106.0
-10.0 14.0 106.0
-10.0 18.0 106.0
-10.0 22.0 106.0
-10.0 -10.0 102.0
-10.0 -6.0 102.0
-10.0 -2.0 102.0
-10.0 2.0 102.0
-10.0 6.0 102.0
-10.0 10.0 102.0
-10.0 14.0 102.0
-10.0 18.0 102.0
-10.0 -10.0 98.0
-10.0 -6.0 98.0
-10.0 -2.0 98.0
-10.0 2.0 98.0
-10.0 6.0 98.0
-10.0 10.0 98.0
-10.0 14.0 98.0
-10.0 18.0 98.0
-10.0 -14.0 94.0
-10.0 -10.0 94.0
-10.0 -6.0 94.0
-10.0 -2.0 94.0
-10.0 2.0 94.0
-10.0 6.0 94.0
-10.0 10.0 94.0
-10.0 14.0 94.0
-10.0 18.0 94.0
-10.0 -26.0 90.0
-10.0 -22.0 90.0
-10.0 -18.0 90.0
-10.0 -14.0 90.0
-10.0 -10.0 90.0
-10.0 -6.0 90.0
-10.0 -2.0 90.0
-10.0 2.0 90.0
-10.0 6.0 90.0
-10.0 10.0 90.0
-10.0 14.0 90.0
-10.0 18.0 90.0
-10.0 22.0 90.0
-10.0 26.0 90.0
-10.0 -26.0 86.0
-10.0 -22.0 86.0
-10.0 -18.0 86.0
-10.0 -14.0 86.0
-10.0 -10.0 86.0
-10.0 -6.0 86.0
-10.0 -2.0 86.0
-10.0 2.0 86.0
-10.0 6.0 86.0
-10.0 10.0 86.0
-10.0 14.0 86.0
-10.0 18.0 86.0
-10.0 22.0 86.0
-10.0 26.0 86.0
-10.0 -30.0 82.0
-10.0 -26.0 82.0
-10.0 -22.0 82.0
-10.0 -18.0 82.0
-10.0 -14.0 82.0
-10.0 -10.0 82.0
-10.0 -6.0 82.0
-10.0 -2.0 82.0
-10.0 2.0 82.0
-10.0 6.0 82.0
-10.0 10.0 82.0
-10.0 14.0 82.0
-10.0 18.0 82.0
-10.0 22.0 82.0
-10.0 26.0 82.0
-10.0 30.0 82.0
-14.0 6.0 130.0
-14.0 10.0 130.0
-14.0 14.0 130.0
-14.0 -6.0 126.0
-14.0 -2.0 126.0
-14.0 2.0 126.0
-14.0 6.0 126.0
-14.0 10.0 126.0
-14.0 14.0 126.0
-14.0 18.0 126.0
-14.0 -10.0 122.0
-14.0 -6.0 122.0
-14.0 -2.0 122.0
-14.0 2.0 122.0
-14.0 6.0 122.0
-14.0 10.0 122.0
-14.0 14.0 122.0
-14.0 18.0 122.0
-14.0 22.0 122.0
-14.0 -10.0 118.0
-14.0 -6.0 118.0
-14.0 -2.0 118.0
-14.0 2.0 118.0
-14.0 6.0 118.0
-14.0 10.0 118.0
-14.0 14.0 118.0
-14.0 18.0 118.0
-14.0 22.0 118.0
-14.0 -10.0 114.0
-14.0 -6.0 114.0
-14.0 -2.0 114.0
-14.0 2.0 114.0
-14.0 6.0 114.0
-14.0 10.0 114.0
-14.0 14.0 114.0
-14.0 18.0 114.0
-14.0 22.0 114.0
-14.0 -10.0 110.0
-14.0 -6.0 110.0
-14.0 -2.0 110.0
-14.0 2.0 110.0
-14.0 6.0 110.0
-14.0 10.0 110.0
-14.0 14.0 110.0
-14.0 18.0 110.0
-14.0 22.0 110.0
-14.0 -10.0 106.0
-14.0 -6.0 106.0
-14.0 -2.0 106.0
-14.0 2.0 106.0
-14.0 6.0 106.0
-14.0 10.0 106.0
-14.0 14.0 106.0
-14.0 18.0 106.0
-14.0 22.0 106.0
-14.0 -10.0 102.0
-14.0 -6.0 102.0
-14.0 -2.0 102.0
-14.0 2.0 102.0
-14.0 6.0 102.0
-14.0 10.0 102.0
-14.0 14.0 102.0
-14.0 18.0 102.0
-14.0 22.0 102.0
-14.0 -10.0 98.0
-14.0 -6.0 98.0
-14.0 -2.0 98.0
-14.0 2.0 98.0
-14.0 6.0 98.0
-14.0 10.0 98.0
-14.0 14.0 98.0
-14.0 18.0 98.0
-14.0 -10.0 94.0
-14.0 -6.0 94.0
-14.0 -2.0 94.0
-14.0 2.0 94.0
-14.0 6.0 94.0
-14.0 10.0 94.0
-14.0 14.0 94.0
-14.0 -22.0 90.0
-14.0 -18.0 90.0
-14.0 -14.0 90.0
-14.0 -10.0 90.0
-14.0 -6.0 90.0
-14.0 -2.0 90.0
-14.0 2.0 90.0
-14.0 6.0 90.0
-14.0 10.0 90.0
-14.0 14.0 90.0
-14.0 18.0 90.0
-14.0 22.0 90.0
-14.0 -26.0 86.0
-14.0 -22.0 86.0
-14.0 -18.0 86.0
-14.0 -14.0 86.0
-14.0 -10.0 86.0
-14.0 -6.0 86.0
-14.0 -2.0 86.0
-14.0 2.0 86.0
-14.0 6.0 86.0
-14.0 10.0 86.0
-14.0 14.0 86.0
-14.0 18.0 86.0
-14.0 22.0 86.0
-14.0 26.0 86.0
-14.0 -26.0 82.0
-14.0 -22.0 82.0
-14.0 -18.0 82.0
-14.0 -14.0 82.0
-14.0 -10.0 82.0
-14.0 -6.0 82.0
-14.0 -2.0 82.0
-14.0 2.0 82.0
-14.0 6.0 82.0
-14.0 10.0 82.0
-14.0 14.0 82.0
-14.0 18.0 82.0
-14.0 22.0 82.0
-14.0 26.0 82.0
-18.0 2.0 130.0
-18.0 6.0 130.0
-18.0 10.0 130.0
-18.0 -6.0 126.0
-18.0 -2.0 126.0
-18.0 2.0 126.0
-18.0 6.0 126.0
-18.0 10.0 126.0
-18.0 14.0 126.0
-18.0 -6.0 122.0
-18.0 -2.0 122.0
-18.0 2.0 122.0
-18.0 6.0 122.0
-18.0 10.0 122.0
-18.0 14.0 122.0
-18.0 18.0 122.0
-18.0 -6.0 118.0
-18.0 -2.0 118.0
-18.0 2.0 118.0
-18.0 6.0 118.0
-18.0 10.0 118.0
-18.0 14.0 118.0
-18.0 18.0 118.0
-18.0 22.0 118.0
-18.0 -10.0 114.0
-18.0 -6.0 114.0
-18.0 -2.0 114.0
-18.0 2.0 114.0
-18.0 6.0 114.0
-18.0 10.0 114.0
-18.0 14.0 114.0
-18.0 18.0 114.0
-18.0 22.0 114.0
-18.0 -10.0 110.0
-18.0 -6.0 110.0
-18.0 -2.0 110.0
-18.0 2.0 110.0
-18.0 6.0 110.0
-18.0 10.0 110.0
-18.0 14.0 110.0
-18.0 18.0 110.0
-18.0 22.0 110.0
-18.0 -6.0 106.0
-18.0 -2.0 106.0
-18.0 2.0 106.0
-18.0 6.0 106.0
-18.0 10.0 106.0
-18.0 14.0 106.0
-18.0 18.0 106.0
-18.0 22.0 106.0
-18.0 -6.0 102.0
-18.0 -2.0 102.0
-18.0 2.0 102.0
-18.0 6.0 102.0
-18.0 10.0 102.0
-18.0 14.0 102.0
-18.0 18.0 102.0
-18.0 22.0 102.0
-18.0 -6.0 98.0
-18.0 -2.0 98.0
-18.0 2.0 98.0
-18.0 6.0 98.0
-18.0 10.0 98.0
-18.0 14.0 98.0
-18.0 18.0 98.0
-18.0 -10.0 94.0
-18.0 -6.0 94.0
-18.0 -2.0 94.0
-18.0 2.0 94.0
-18.0 6.0 94.0
-18.0 -22.0 90.0
-18.0 -18.0 90.0
-18.0 -14.0 90.0
-18.0 -10.0 90.0
-18.0 -6.0 90.0
-18.0 -2.0 90.0
-18.0 2.0 90.0
-18.0 6.0 90.0
-18.0 10.0 90.0
-18.0 14.0 90.0
-18.0 18.0 90.0
-18.0 22.0 90.0
-18.0 -22.0 86.0
-18.0 -18.0 86.0
-18.0 -14.0 86.0
-18.0 -10.0 86.0
-18.0 -6.0 86.0
-18.0 -2.0 86.0
-18.0 2.0 86.0
-18.0 6.0 86.0
-18.0 10.0 86.0
-18.0 14.0 86.0
-18.0 18.0 86.0
-18.0 22.0 86.0
-18.0 -22.0 82.0
-18.0 -18.0 82.0
-18.0 -14.0 82.0
-18.0 -10.0 82.0
-18.0 -6.0 82.0
-18.0 -2.0 82.0
-18.0 2.0 82.0
-18.0 6.0 82.0
-18.0 10.0 82.0
-18.0 14.0 82.0
-18.0 18.0 82.0
-18.0 22.0 82.0
-18.0 26.0 82.0
-22.0 -2.0 126.0
-22.0 2.0 126.0
-22.0 6.0 126.0
-22.0 10.0 126.0
-22.0 -6.0 122.0
-22.0 -2.0 122.0
-22.0 2.0 122.0
-22.0 6.0 122.0
-22.0 10.0 122.0
-22.0 14.0 122.0
-22.0 22.0 122.0
-22.0 -6.0 118.0
-22.0 -2.0 118.0
-22.0 2.0 118.0
-22.0 6.0 118.0
-22.0 10.0 118.0
-22.0 14.0 118.0
-22.0 18.0 118.0
-22.0 22.0 118.0
-22.0 26.0 118.0
-22.0 -6.0 114.0
-22.0 -2.0 114.0
-22.0 2.0 114.0
-22.0 6.0 114.0
-22.0 10.0 114.0
-22.0 14.0 114.0
-22.0 18.0 114.0
-22.0 22.0 114.0
-22.0 -6.0 110.0
-22.0 -2.0 110.0
-22.0 2.0 110.0
-22.0 6.0 110.0
-22.0 10.0 110.0
-22.0 14.0 110.0
-22.0 18.0 110.0
-22.0 22.0 110.0
-22.0 -6.0 106.0
-22.0 -2.0 106.0
-22.0 2.0 106.0
-22.0 6.0 106.0
-22.0 10.0 106.0
-22.0 14.0 106.0
-22.0 18.0 106.0
-22.0 22.0 106.0
-22.0 -2.0 102.0
-22.0 2.0 102.0
-22.0 6.0 102.0
-22.0 10.0 102.0
-22.0 14.0 102.0
-22.0 18.0 102.0
-22.0 22.0 102.0
-22.0 -2.0 98.0
-22.0 2.0 98.0
-22.0 6.0 98.0
-22.0 10.0 98.0
-22.0 14.0 98.0
-22.0 18.0 98.0
-22.0 -2.0 94.0
-22.0 -18.0 90.0
-22.0 -14.0 90.0
-22.0 -10.0 90.0
-22.0 -6.0 90.0
-22.0 -2.0 90.0
-22.0 2.0 90.0
-22.0 6.0 90.0
-22.0 10.0 90.0
-22.0 14.0 90.0
-22.0 18.0 90.0
-22.0 -18.0 86.0
-22.0 -14.0 86.0
-22.0 -10.0 86.0
-22.0 -6.0 86.0
-22.0 -2.0 86.0
-22.0 2.0 86.0
-22.0 6.0 86.0
-22.0 10.0 86.0
-22.0 14.0 86.0
-22.0 18.0 86.0
-22.0 22.0 86.0
-22.0 -22.0 82.0
-22.0 -18.0 82.0
-22.0 -14.0 82.0
-22.0 -10.0 82.0
-22.0 -6.0 82.0
-22.0 -2.0 82.0
-22.0 2.0 82.0
-22.0 6.0 82.0
-22.0 10.0 82.0
-22.0 14.0 82.0
-22.0 18.0 82.0
-22.0 22.0 82.0
-26.0 -2.0 122.0
-26.0 2.0 122.0
-26.0 6.0 122.0
-26.0 10.0 122.0
-26.0 14.0 122.0
-26.0 18.0 122.0
-26.0 22.0 122.0
-26.0 26.0 122.0
-26.0 -6.0 118.0
-26.0 -2.0 118.0
-26.0 2.0 118.0
-26.0 6.0 118.0
-26.0 10.0 118.0
-26.0 14.0 118.0
-26.0 18.0 118.0
-26.0 22.0 118.0
-26.0 26.0 118.0
-26.0 -6.0 114.0
-26.0 -2.0 114.0
-26.0 2.0 114.0
-26.0 6.0 114.0
-26.0 10.0 114.0
-26.0 14.0 114.0
-26.0 18.0 114.0
-26.0 22.0 114.0
-26.0 -6.0 110.0
-26.0 -2.0 110.0
-26.0 2.0 110.0
-26.0 6.0 110.0
-26.0 10.0 110.0
-26.0 14.0 110.0
-26.0 18.0 110.0
-26.0 22.0 110.0
-26.0 -2.0 106.0
-26.0 2.0 106.0
-26.0 6.0 106.0
-26.0 10.0 106.0
-26.0 14.0 106.0
-26.0 18.0 106.0
-26.0 22.0 106.0
-26.0 2.0 102.0
-26.0 6.0 102.0
-26.0 10.0 102.0
-26.0 14.0 102.0
-26.0 18.0 102.0
-26.0 22.0 102.0
-26.0 6.0 98.0
-26.0 10.0 98.0
-26.0 14.0 98.0
-26.0 18.0 98.0
-26.0 -10.0 90.0
-26.0 -6.0 90.0
-26.0 -2.0 90.0
-26.0 2.0 90.0
-26.0 6.0 90.0
-26.0 10.0 90.0
-26.0 -14.0 86.0
-26.0 -10.0 86.0
-26.0 -6.0 86.0
-26.0 -2.0 86.0
-26.0 2.0 86.0
-26.0 6.0 86.0
-26.0 10.0 86.0
-26.0 14.0 86.0
-26.0 -14.0 82.0
-26.0 -10.0 82.0
-26.0 -6.0 82.0
-26.0 -2.0 82.0
-26.0 2.0 82.0
-26.0 6.0 82.0
-26.0 10.0 82.0
-26.0 14.0 82.0
-26.0 18.0 82.0
-30.0 6.0 122.0
-30.0 10.0 122.0
-30.0 14.0 122.0
-30.0 18.0 122.0
-30.0 22.0 122.0
-30.0 26.0 122.0
-30.0 -2.0 118.0
-30.0 2.0 118.0
-30.0 6.0 118.0
-30.0 10.0 118.0
-30.0 14.0 118.0
-30.0 18.0 118.0
-30.0 22.0 118.0
-30.0 26.0 118.0
-30.0 -2.0 114.0
-30.0 2.0 114.0
-30.0 6.0 114.0
-30.0 10.0 114.0
-30.0 14.0 114.0
-30.0 18.0 114.0
-30.0 22.0 114.0
-30.0 -2.0 110.0
-30.0 2.0 110.0
-30.0 6.0 110.0
-30.0 10.0 110.0
-30.0 14.0 110.0
-30.0 18.0 110.0
-30.0 22.0 110.0
-30.0 -2.0 106.0
-30.0 2.0 106.0
-30.0 6.0 106.0
-30.0 10.0 106.0
-30.0 14.0 106.0
-30.0 18.0 106.0
-30.0 22.0 106.0
-30.0 6.0 102.0
-30.0 10.0 102.0
-30.0 14.0 102.0
-30.0 18.0 102.0
-30.0 22.0 102.0
-30.0 10.0 98.0
-30.0 14.0 98.0
-30.0 -6.0 86.0
-30.0 -2.0 86.0
-30.0 2.0 86.0
-30.0 6.0 86.0
-30.0 -6.0 82.0
-30.0 -2.0 82.0
-30.0 2.0 82.0
-30.0 6.0 82.0
-30.0 10.0 82.0
-34.0 2.0 122.0
-34.0 6.0 122.0
-34.0 10.0 122.0
-34.0 14.0 122.0
-34.0 18.0 122.0
-34.0 22.0 122.0
-34.0 26.0 122.0
-34.0 2.0 118.0
-34.0 6.0 118.0
-34.0 10.0 118.0
-34.0 14.0 118.0
-34.0 18.0 118.0
-34.0 22.0 118.0
-34.0 26.0 118.0
-34.0 6.0 114.0
-34.0 10.0 114.0
-34.0 14.0 114.0
-34.0 18.0 114.0
-34.0 22.0 114.0
-34.0 2.0 110.0
-34.0 6.0 110.0
-34.0 10.0 110.0
-34.0 14.0 110.0
-34.0 18.0 110.0
-34.0 22.0 110.0
-34.0 2.0 106.0
-34.0 6.0 106.0
-34.0 10.0 106.0
-34.0 14.0 106.0
-34.0 18.0 106.0
-34.0 22.0 106.0
-34.0 10.0 102.0
-34.0 14.0 102.0
-34.0 18.0 102.0
-34.0 22.0 102.0
-38.0 18.0 198.0
-38.0 6.0 122.0
-38.0 10.0 122.0
-38.0 14.0 122.0
-38.0 18.0 122.0
-38.0 6.0 118.0
-38.0 10.0 118.0
-38.0 14.0 118.0
-38.0 18.0 118.0
-38.0 10.0 114.0
-38.0 14.0 114.0
-38.0 18.0 114.0
-38.0 22.0 114.0
-38.0 10.0 110.0
-38.0 14.0 110.0
-38.0 18.0 110.0
-38.0 22.0 110.0
-38.0 10.0 106.0
-38.0 14.0 106.0
-38.0 18.0 106.0
-38.0 22.0 106.0
-38.0 14.0 102.0
-38.0 18.0 102.0
-38.0 22.0 102.0
-42.0 10.0 122.0
-42.0 10.0 118.0
-42.0 14.0 118.0
-42.0 18.0 110.0
-42.0 18.0 106.0
-42.0 18.0 102.0
